<svg xmlns="http://www.w3.org/2000/svg" width="79" height="79" viewBox="0 0 20.902 20.902"><g fill="#89b400"><path d="M6.35 0h3.969v3.969H6.35zM6.35 4.233h3.969v3.97H6.35zM6.35 8.467h3.969v3.968H6.35zM6.35 12.7h3.969v3.969H6.35zM6.35 16.933h3.969v3.97H6.35zM10.583 8.467h3.97v3.968h-3.97zM10.583 16.933h3.97v3.97h-3.97zM10.583 0h3.97v3.969h-3.97zM14.817 4.233h3.968v3.97h-3.968zM14.817 12.7h3.968v3.969h-3.968zM14.817 8.467h1.852v1.852h-1.852zM14.817 10.583h1.852v1.852h-1.852zM14.817 16.933h1.852v1.852h-1.852zM14.817 2.117h1.852v1.852h-1.852zM14.817 1.058h.793v.794h-.793zM16.933 3.175h.794v.794h-.794zM16.933 8.467h.794v.793h-.794zM16.933 11.642h.794v.793h-.794zM16.933 16.933h.794v.794h-.794zM14.817 19.05h.793v.794h-.793zM2.117 0h3.968v3.969H2.117zM2.117 16.933h3.968v3.97H2.117z"/></g></svg>